<svg version="1.1" xmlns="http://www.w3.org/2000/svg" viewBox="0 0 2088 838" width="4176" height="1676"><!-- svg-source:excalidraw --><metadata></metadata><defs><style class="style-fonts">
      </style></defs><rect x="0" y="0" width="2088" height="838" fill="#ffffff"></rect><g transform="translate(44 24) rotate(0 450 12)"><text x="0" y="17.900390625" font-family="Helvetica, sans-serif, Segoe UI Emoji" font-size="20px" fill="#1e1e1e" text-anchor="start" style="white-space: pre;" direction="ltr" dominant-baseline="alphabetic">HourStats · system context</text></g><g transform="translate(44 52) rotate(0 450 9)"><text x="0" y="11.63525390625" font-family="Helvetica, sans-serif, Segoe UI Emoji" font-size="13px" fill="#495057" text-anchor="start" style="white-space: pre;" direction="ltr" dominant-baseline="alphabetic">One Go process on Fly.io reads the Bluesky firehose, scores sentiment, and posts summaries back to Bluesky.</text></g><g stroke-linecap="round" transform="translate(44 204) rotate(0 150 45)"><path d="M22.5 0 C89.18 0, 155.86 0, 277.5 0 C292.5 0, 300 7.5, 300 22.5 C300 36.7, 300 50.89, 300 67.5 C300 82.5, 292.5 90, 277.5 90 C223.97 90, 170.44 90, 22.5 90 C7.5 90, 0 82.5, 0 67.5 C0 55.49, 0 43.49, 0 22.5 C0 7.5, 7.5 0, 22.5 0" stroke="none" stroke-width="0" fill="#f4f4f5"></path><path d="M22.5 0 C80.84 0, 139.17 0, 277.5 0 M22.5 0 C113.32 0, 204.14 0, 277.5 0 M277.5 0 C292.5 0, 300 7.5, 300 22.5 M277.5 0 C292.5 0, 300 7.5, 300 22.5 M300 22.5 C300 38.21, 300 53.92, 300 67.5 M300 22.5 C300 32.05, 300 41.6, 300 67.5 M300 67.5 C300 82.5, 292.5 90, 277.5 90 M300 67.5 C300 82.5, 292.5 90, 277.5 90 M277.5 90 C202.17 90, 126.84 90, 22.5 90 M277.5 90 C184.49 90, 91.48 90, 22.5 90 M22.5 90 C7.5 90, 0 82.5, 0 67.5 M22.5 90 C7.5 90, 0 82.5, 0 67.5 M0 67.5 C0 51.65, 0 35.8, 0 22.5 M0 67.5 C0 54.29, 0 41.08, 0 22.5 M0 22.5 C0 7.5, 7.5 0, 22.5 0 M0 22.5 C0 7.5, 7.5 0, 22.5 0" stroke="#868e96" stroke-width="1" fill="none"></path></g><g transform="translate(52 222.75) rotate(0 142 26.25)"><text x="142" y="12.5302734375" font-family="Helvetica, sans-serif, Segoe UI Emoji" font-size="14px" fill="#1e1e1e" text-anchor="middle" style="white-space: pre;" direction="ltr" dominant-baseline="alphabetic">Bluesky Jetstream firehose</text><text x="142" y="30.0302734375" font-family="Helvetica, sans-serif, Segoe UI Emoji" font-size="14px" fill="#1e1e1e" text-anchor="middle" style="white-space: pre;" direction="ltr" dominant-baseline="alphabetic">jetstream2.us-west.bsky.network</text><text x="142" y="47.5302734375" font-family="Helvetica, sans-serif, Segoe UI Emoji" font-size="14px" fill="#1e1e1e" text-anchor="middle" style="white-space: pre;" direction="ltr" dominant-baseline="alphabetic">WebSocket · app.bsky.feed.post commits</text></g><g stroke-linecap="round" transform="translate(24 464) rotate(0 100 35)"><path d="M17.5 0 C71.79 0, 126.07 0, 182.5 0 C194.17 0, 200 5.83, 200 17.5 C200 28.97, 200 40.43, 200 52.5 C200 64.17, 194.17 70, 182.5 70 C130.98 70, 79.46 70, 17.5 70 C5.83 70, 0 64.17, 0 52.5 C0 45.13, 0 37.77, 0 17.5 C0 5.83, 5.83 0, 17.5 0" stroke="none" stroke-width="0" fill="#e8eefb"></path><path d="M17.5 0 C63.44 0, 109.37 0, 182.5 0 M17.5 0 C72.97 0, 128.45 0, 182.5 0 M182.5 0 C194.17 0, 200 5.83, 200 17.5 M182.5 0 C194.17 0, 200 5.83, 200 17.5 M200 17.5 C200 26.06, 200 34.63, 200 52.5 M200 17.5 C200 27.77, 200 38.05, 200 52.5 M200 52.5 C200 64.17, 194.17 70, 182.5 70 M200 52.5 C200 64.17, 194.17 70, 182.5 70 M182.5 70 C131.39 70, 80.29 70, 17.5 70 M182.5 70 C138.3 70, 94.1 70, 17.5 70 M17.5 70 C5.83 70, 0 64.17, 0 52.5 M17.5 70 C5.83 70, 0 64.17, 0 52.5 M0 52.5 C0 38.74, 0 24.97, 0 17.5 M0 52.5 C0 45.3, 0 38.11, 0 17.5 M0 17.5 C0 5.83, 5.83 0, 17.5 0 M0 17.5 C0 5.83, 5.83 0, 17.5 0" stroke="#3b5bdb" stroke-width="1" fill="none"></path></g><g transform="translate(32 481.5) rotate(0 92 17.5)"><text x="92" y="12.5302734375" font-family="Helvetica, sans-serif, Segoe UI Emoji" font-size="14px" fill="#1e1e1e" text-anchor="middle" style="white-space: pre;" direction="ltr" dominant-baseline="alphabetic">Operator</text><text x="92" y="30.0302734375" font-family="Helvetica, sans-serif, Segoe UI Emoji" font-size="14px" fill="#1e1e1e" text-anchor="middle" style="white-space: pre;" direction="ltr" dominant-baseline="alphabetic">fly CLI · fly ssh · fly proxy 9111</text></g><g stroke-linecap="round" transform="translate(384 454) rotate(0 120 45)"><path d="M22.5 0 C83.65 0, 144.79 0, 217.5 0 C232.5 0, 240 7.5, 240 22.5 C240 33.95, 240 45.4, 240 67.5 C240 82.5, 232.5 90, 217.5 90 C141.55 90, 65.61 90, 22.5 90 C7.5 90, 0 82.5, 0 67.5 C0 50.5, 0 33.5, 0 22.5 C0 7.5, 7.5 0, 22.5 0" stroke="none" stroke-width="0" fill="#f4f4f5"></path><path d="M22.5 0 C68.38 0, 114.26 0, 217.5 0 M22.5 0 C96.73 0, 170.96 0, 217.5 0 M217.5 0 C232.5 0, 240 7.5, 240 22.5 M217.5 0 C232.5 0, 240 7.5, 240 22.5 M240 22.5 C240 34.32, 240 46.14, 240 67.5 M240 22.5 C240 34.66, 240 46.81, 240 67.5 M240 67.5 C240 82.5, 232.5 90, 217.5 90 M240 67.5 C240 82.5, 232.5 90, 217.5 90 M217.5 90 C154.69 90, 91.88 90, 22.5 90 M217.5 90 C149.08 90, 80.66 90, 22.5 90 M22.5 90 C7.5 90, 0 82.5, 0 67.5 M22.5 90 C7.5 90, 0 82.5, 0 67.5 M0 67.5 C0 53.62, 0 39.74, 0 22.5 M0 67.5 C0 51.37, 0 35.25, 0 22.5 M0 22.5 C0 7.5, 7.5 0, 22.5 0 M0 22.5 C0 7.5, 7.5 0, 22.5 0" stroke="#868e96" stroke-width="1" fill="none"></path></g><g transform="translate(392 472.75) rotate(0 112 26.25)"><text x="112" y="12.5302734375" font-family="Helvetica, sans-serif, Segoe UI Emoji" font-size="14px" fill="#1e1e1e" text-anchor="middle" style="white-space: pre;" direction="ltr" dominant-baseline="alphabetic">Fly.io platform</text><text x="112" y="30.0302734375" font-family="Helvetica, sans-serif, Segoe UI Emoji" font-size="14px" fill="#1e1e1e" text-anchor="middle" style="white-space: pre;" direction="ltr" dominant-baseline="alphabetic">machine · volume · secrets</text><text x="112" y="47.5302734375" font-family="Helvetica, sans-serif, Segoe UI Emoji" font-size="14px" fill="#1e1e1e" text-anchor="middle" style="white-space: pre;" direction="ltr" dominant-baseline="alphabetic">logs · metrics</text></g><g stroke-linecap="round" transform="translate(624 304) rotate(0 150 65)"><path d="M32 0 C115.35 0, 198.71 0, 268 0 C289.33 0, 300 10.67, 300 32 C300 46.31, 300 60.62, 300 98 C300 119.33, 289.33 130, 268 130 C174.39 130, 80.77 130, 32 130 C10.67 130, 0 119.33, 0 98 C0 80.24, 0 62.47, 0 32 C0 10.67, 10.67 0, 32 0" stroke="none" stroke-width="0" fill="#fff3bf"></path><path d="M32 0 C123.17 0, 214.35 0, 268 0 M32 0 C110.06 0, 188.12 0, 268 0 M268 0 C289.33 0, 300 10.67, 300 32 M268 0 C289.33 0, 300 10.67, 300 32 M300 32 C300 56.14, 300 80.29, 300 98 M300 32 C300 52.03, 300 72.05, 300 98 M300 98 C300 119.33, 289.33 130, 268 130 M300 98 C300 119.33, 289.33 130, 268 130 M268 130 C193.08 130, 118.15 130, 32 130 M268 130 C199.59 130, 131.18 130, 32 130 M32 130 C10.67 130, 0 119.33, 0 98 M32 130 C10.67 130, 0 119.33, 0 98 M0 98 C0 80.56, 0 63.13, 0 32 M0 98 C0 72.44, 0 46.89, 0 32 M0 32 C0 10.67, 10.67 0, 32 0 M0 32 C0 10.67, 10.67 0, 32 0" stroke="#e67700" stroke-width="1" fill="none"></path></g><g transform="translate(632 340.875) rotate(0 142 28.125)"><text x="142" y="13.42529296875" font-family="Helvetica, sans-serif, Segoe UI Emoji" font-size="15px" fill="#1e1e1e" text-anchor="middle" style="white-space: pre;" direction="ltr" dominant-baseline="alphabetic">HourStats bot</text><text x="142" y="32.17529296875" font-family="Helvetica, sans-serif, Segoe UI Emoji" font-size="15px" fill="#1e1e1e" text-anchor="middle" style="white-space: pre;" direction="ltr" dominant-baseline="alphabetic">single Go binary on Fly.io</text><text x="142" y="50.92529296875" font-family="Helvetica, sans-serif, Segoe UI Emoji" font-size="15px" fill="#1e1e1e" text-anchor="middle" style="white-space: pre;" direction="ltr" dominant-baseline="alphabetic">hourstats-prod · hourstats-staging</text></g><g stroke-linecap="round" transform="translate(1384 94) rotate(0 190 125)"><path d="M32 0 C113.27 0, 194.53 0, 348 0 M348 0 C369.33 0, 380 10.67, 380 32 M380 32 C380 73.97, 380 115.95, 380 218 M380 218 C380 239.33, 369.33 250, 348 250 M348 250 C230.84 250, 113.68 250, 32 250 M32 250 C10.67 250, 0 239.33, 0 218 M0 218 C0 164.43, 0 110.86, 0 32 M0 32 C0 10.67, 10.67 0, 32 0" stroke="#adb5bd" stroke-width="1.5" fill="none" stroke-dasharray="8 9"></path></g><g transform="translate(1396 102) rotate(0 178 9.375)"><text x="0" y="13.42529296875" font-family="Helvetica, sans-serif, Segoe UI Emoji" font-size="15px" fill="#495057" text-anchor="start" style="white-space: pre;" direction="ltr" dominant-baseline="alphabetic">Google</text></g><g stroke-linecap="round" transform="translate(1404 129) rotate(0 170 45)"><path d="M22.5 0 C111.07 0, 199.64 0, 317.5 0 C332.5 0, 340 7.5, 340 22.5 C340 38.85, 340 55.2, 340 67.5 C340 82.5, 332.5 90, 317.5 90 C204.87 90, 92.24 90, 22.5 90 C7.5 90, 0 82.5, 0 67.5 C0 50.82, 0 34.14, 0 22.5 C0 7.5, 7.5 0, 22.5 0" stroke="none" stroke-width="0" fill="#f4f4f5"></path><path d="M22.5 0 C92.42 0, 162.35 0, 317.5 0 M22.5 0 C130.7 0, 238.91 0, 317.5 0 M317.5 0 C332.5 0, 340 7.5, 340 22.5 M317.5 0 C332.5 0, 340 7.5, 340 22.5 M340 22.5 C340 35.24, 340 47.99, 340 67.5 M340 22.5 C340 37.81, 340 53.12, 340 67.5 M340 67.5 C340 82.5, 332.5 90, 317.5 90 M340 67.5 C340 82.5, 332.5 90, 317.5 90 M317.5 90 C246.7 90, 175.91 90, 22.5 90 M317.5 90 C215.32 90, 113.14 90, 22.5 90 M22.5 90 C7.5 90, 0 82.5, 0 67.5 M22.5 90 C7.5 90, 0 82.5, 0 67.5 M0 67.5 C0 52.99, 0 38.48, 0 22.5 M0 67.5 C0 55.69, 0 43.89, 0 22.5 M0 22.5 C0 7.5, 7.5 0, 22.5 0 M0 22.5 C0 7.5, 7.5 0, 22.5 0" stroke="#868e96" stroke-width="1" fill="none"></path></g><g transform="translate(1412 147.75) rotate(0 162 26.25)"><text x="162" y="12.5302734375" font-family="Helvetica, sans-serif, Segoe UI Emoji" font-size="14px" fill="#1e1e1e" text-anchor="middle" style="white-space: pre;" direction="ltr" dominant-baseline="alphabetic">Gemini API</text><text x="162" y="30.0302734375" font-family="Helvetica, sans-serif, Segoe UI Emoji" font-size="14px" fill="#1e1e1e" text-anchor="middle" style="white-space: pre;" direction="ltr" dominant-baseline="alphabetic">generativelanguage.googleapis.com</text><text x="162" y="47.5302734375" font-family="Helvetica, sans-serif, Segoe UI Emoji" font-size="14px" fill="#1e1e1e" text-anchor="middle" style="white-space: pre;" direction="ltr" dominant-baseline="alphabetic">gemini-2.5-pro, fallback gemini-2.5-flash</text></g><g stroke-linecap="round" transform="translate(1404 239) rotate(0 170 40)"><path d="M20 0 C107 0, 194 0, 320 0 C333.33 0, 340 6.67, 340 20 C340 31.44, 340 42.89, 340 60 C340 73.33, 333.33 80, 320 80 C221.66 80, 123.31 80, 20 80 C6.67 80, 0 73.33, 0 60 C0 48.09, 0 36.18, 0 20 C0 6.67, 6.67 0, 20 0" stroke="none" stroke-width="0" fill="#f4f4f5"></path><path d="M20 0 C120.44 0, 220.88 0, 320 0 M20 0 C135.47 0, 250.94 0, 320 0 M320 0 C333.33 0, 340 6.67, 340 20 M320 0 C333.33 0, 340 6.67, 340 20 M340 20 C340 29.96, 340 39.93, 340 60 M340 20 C340 29.42, 340 38.83, 340 60 M340 60 C340 73.33, 333.33 80, 320 80 M340 60 C340 73.33, 333.33 80, 320 80 M320 80 C250.52 80, 181.05 80, 20 80 M320 80 C245.95 80, 171.89 80, 20 80 M20 80 C6.67 80, 0 73.33, 0 60 M20 80 C6.67 80, 0 73.33, 0 60 M0 60 C0 44, 0 28.01, 0 20 M0 60 C0 51.31, 0 42.63, 0 20 M0 20 C0 6.67, 6.67 0, 20 0 M0 20 C0 6.67, 6.67 0, 20 0" stroke="#868e96" stroke-width="1" fill="none"></path></g><g transform="translate(1412 261.5) rotate(0 162 17.5)"><text x="162" y="12.5302734375" font-family="Helvetica, sans-serif, Segoe UI Emoji" font-size="14px" fill="#1e1e1e" text-anchor="middle" style="white-space: pre;" direction="ltr" dominant-baseline="alphabetic">Google News RSS</text><text x="162" y="30.0302734375" font-family="Helvetica, sans-serif, Segoe UI Emoji" font-size="14px" fill="#1e1e1e" text-anchor="middle" style="white-space: pre;" direction="ltr" dominant-baseline="alphabetic">news.google.com/rss · US, GB, AU</text></g><g stroke-linecap="round" transform="translate(1404 374) rotate(0 170 35)"><path d="M17.5 0 C129.75 0, 242 0, 322.5 0 C334.17 0, 340 5.83, 340 17.5 C340 25.61, 340 33.73, 340 52.5 C340 64.17, 334.17 70, 322.5 70 C207.3 70, 92.1 70, 17.5 70 C5.83 70, 0 64.17, 0 52.5 C0 43.24, 0 33.97, 0 17.5 C0 5.83, 5.83 0, 17.5 0" stroke="none" stroke-width="0" fill="#e6fcf5"></path><path d="M17.5 0 C90.96 0, 164.42 0, 322.5 0 M17.5 0 C126.33 0, 235.17 0, 322.5 0 M322.5 0 C334.17 0, 340 5.83, 340 17.5 M322.5 0 C334.17 0, 340 5.83, 340 17.5 M340 17.5 C340 29.85, 340 42.2, 340 52.5 M340 17.5 C340 30.12, 340 42.73, 340 52.5 M340 52.5 C340 64.17, 334.17 70, 322.5 70 M340 52.5 C340 64.17, 334.17 70, 322.5 70 M322.5 70 C250.38 70, 178.26 70, 17.5 70 M322.5 70 C231.88 70, 141.26 70, 17.5 70 M17.5 70 C5.83 70, 0 64.17, 0 52.5 M17.5 70 C5.83 70, 0 64.17, 0 52.5 M0 52.5 C0 44.43, 0 36.35, 0 17.5 M0 52.5 C0 43.37, 0 34.24, 0 17.5 M0 17.5 C0 5.83, 5.83 0, 17.5 0 M0 17.5 C0 5.83, 5.83 0, 17.5 0" stroke="#0ca678" stroke-width="1" fill="none"></path></g><g transform="translate(1412 391.5) rotate(0 162 17.5)"><text x="162" y="12.5302734375" font-family="Helvetica, sans-serif, Segoe UI Emoji" font-size="14px" fill="#1e1e1e" text-anchor="middle" style="white-space: pre;" direction="ltr" dominant-baseline="alphabetic">AWS S3</text><text x="162" y="30.0302734375" font-family="Helvetica, sans-serif, Segoe UI Emoji" font-size="14px" fill="#1e1e1e" text-anchor="middle" style="white-space: pre;" direction="ltr" dominant-baseline="alphabetic">hourstats-sqlite-backups · us-west-2</text></g><g stroke-linecap="round" transform="translate(1404 474) rotate(0 170 30)"><path d="M15 0 C138.63 0, 262.25 0, 325 0 C335 0, 340 5, 340 15 C340 23.87, 340 32.74, 340 45 C340 55, 335 60, 325 60 C216.42 60, 107.83 60, 15 60 C5 60, 0 55, 0 45 C0 33.54, 0 22.09, 0 15 C0 5, 5 0, 15 0" stroke="none" stroke-width="0" fill="#f4f4f5"></path><path d="M15 0 C124.95 0, 234.9 0, 325 0 M15 0 C113.5 0, 212.01 0, 325 0 M325 0 C335 0, 340 5, 340 15 M325 0 C335 0, 340 5, 340 15 M340 15 C340 22.72, 340 30.45, 340 45 M340 15 C340 25.7, 340 36.4, 340 45 M340 45 C340 55, 335 60, 325 60 M340 45 C340 55, 335 60, 325 60 M325 60 C208.7 60, 92.4 60, 15 60 M325 60 C221.69 60, 118.39 60, 15 60 M15 60 C5 60, 0 55, 0 45 M15 60 C5 60, 0 55, 0 45 M0 45 C0 37.84, 0 30.67, 0 15 M0 45 C0 35.57, 0 26.13, 0 15 M0 15 C0 5, 5 0, 15 0 M0 15 C0 5, 5 0, 15 0" stroke="#868e96" stroke-width="1" fill="none"></path></g><g transform="translate(1412 486.5) rotate(0 162 17.5)"><text x="162" y="12.5302734375" font-family="Helvetica, sans-serif, Segoe UI Emoji" font-size="14px" fill="#1e1e1e" text-anchor="middle" style="white-space: pre;" direction="ltr" dominant-baseline="alphabetic">Wikipedia</text><text x="162" y="30.0302734375" font-family="Helvetica, sans-serif, Segoe UI Emoji" font-size="14px" fill="#1e1e1e" text-anchor="middle" style="white-space: pre;" direction="ltr" dominant-baseline="alphabetic">Portal:Current_events/YYYY_Month_D</text></g><g stroke-linecap="round" transform="translate(1384 564) rotate(0 190 125)"><path d="M32 0 C134.16 0, 236.33 0, 348 0 M348 0 C369.33 0, 380 10.67, 380 32 M380 32 C380 85.53, 380 139.05, 380 218 M380 218 C380 239.33, 369.33 250, 348 250 M348 250 C225.82 250, 103.64 250, 32 250 M32 250 C10.67 250, 0 239.33, 0 218 M0 218 C0 147.39, 0 76.78, 0 32 M0 32 C0 10.67, 10.67 0, 32 0" stroke="#adb5bd" stroke-width="1.5" fill="none" stroke-dasharray="8 9"></path></g><g transform="translate(1396 572) rotate(0 178 9.375)"><text x="0" y="13.42529296875" font-family="Helvetica, sans-serif, Segoe UI Emoji" font-size="15px" fill="#495057" text-anchor="start" style="white-space: pre;" direction="ltr" dominant-baseline="alphabetic">Bluesky network</text></g><g stroke-linecap="round" transform="translate(1404 599) rotate(0 170 45)"><path d="M22.5 0 C83.51 0, 144.52 0, 317.5 0 C332.5 0, 340 7.5, 340 22.5 C340 40.09, 340 57.68, 340 67.5 C340 82.5, 332.5 90, 317.5 90 C250.29 90, 183.09 90, 22.5 90 C7.5 90, 0 82.5, 0 67.5 C0 56.84, 0 46.18, 0 22.5 C0 7.5, 7.5 0, 22.5 0" stroke="none" stroke-width="0" fill="#f4f4f5"></path><path d="M22.5 0 C133.67 0, 244.83 0, 317.5 0 M22.5 0 C134.61 0, 246.72 0, 317.5 0 M317.5 0 C332.5 0, 340 7.5, 340 22.5 M317.5 0 C332.5 0, 340 7.5, 340 22.5 M340 22.5 C340 32.35, 340 42.19, 340 67.5 M340 22.5 C340 39.21, 340 55.92, 340 67.5 M340 67.5 C340 82.5, 332.5 90, 317.5 90 M340 67.5 C340 82.5, 332.5 90, 317.5 90 M317.5 90 C243.88 90, 170.26 90, 22.5 90 M317.5 90 C207.71 90, 97.92 90, 22.5 90 M22.5 90 C7.5 90, 0 82.5, 0 67.5 M22.5 90 C7.5 90, 0 82.5, 0 67.5 M0 67.5 C0 53.8, 0 40.1, 0 22.5 M0 67.5 C0 49.69, 0 31.88, 0 22.5 M0 22.5 C0 7.5, 7.5 0, 22.5 0 M0 22.5 C0 7.5, 7.5 0, 22.5 0" stroke="#868e96" stroke-width="1" fill="none"></path></g><g transform="translate(1412 617.75) rotate(0 162 26.25)"><text x="162" y="12.5302734375" font-family="Helvetica, sans-serif, Segoe UI Emoji" font-size="14px" fill="#1e1e1e" text-anchor="middle" style="white-space: pre;" direction="ltr" dominant-baseline="alphabetic">Public AppView</text><text x="162" y="30.0302734375" font-family="Helvetica, sans-serif, Segoe UI Emoji" font-size="14px" fill="#1e1e1e" text-anchor="middle" style="white-space: pre;" direction="ltr" dominant-baseline="alphabetic">public.api.bsky.app</text><text x="162" y="47.5302734375" font-family="Helvetica, sans-serif, Segoe UI Emoji" font-size="14px" fill="#1e1e1e" text-anchor="middle" style="white-space: pre;" direction="ltr" dominant-baseline="alphabetic">app.bsky.feed.getPosts · no auth</text></g><g stroke-linecap="round" transform="translate(1404 709) rotate(0 170 45)"><path d="M22.5 0 C118.09 0, 213.69 0, 317.5 0 C332.5 0, 340 7.5, 340 22.5 C340 37.46, 340 52.43, 340 67.5 C340 82.5, 332.5 90, 317.5 90 C211.69 90, 105.88 90, 22.5 90 C7.5 90, 0 82.5, 0 67.5 C0 58.11, 0 48.71, 0 22.5 C0 7.5, 7.5 0, 22.5 0" stroke="none" stroke-width="0" fill="#f4f4f5"></path><path d="M22.5 0 C114.89 0, 207.28 0, 317.5 0 M22.5 0 C81.85 0, 141.2 0, 317.5 0 M317.5 0 C332.5 0, 340 7.5, 340 22.5 M317.5 0 C332.5 0, 340 7.5, 340 22.5 M340 22.5 C340 32.98, 340 43.46, 340 67.5 M340 22.5 C340 32, 340 41.49, 340 67.5 M340 67.5 C340 82.5, 332.5 90, 317.5 90 M340 67.5 C340 82.5, 332.5 90, 317.5 90 M317.5 90 C241.33 90, 165.16 90, 22.5 90 M317.5 90 C205.11 90, 92.73 90, 22.5 90 M22.5 90 C7.5 90, 0 82.5, 0 67.5 M22.5 90 C7.5 90, 0 82.5, 0 67.5 M0 67.5 C0 50.15, 0 32.81, 0 22.5 M0 67.5 C0 49.8, 0 32.1, 0 22.5 M0 22.5 C0 7.5, 7.5 0, 22.5 0 M0 22.5 C0 7.5, 7.5 0, 22.5 0" stroke="#868e96" stroke-width="1" fill="none"></path></g><g transform="translate(1412 727.75) rotate(0 162 26.25)"><text x="162" y="12.5302734375" font-family="Helvetica, sans-serif, Segoe UI Emoji" font-size="14px" fill="#1e1e1e" text-anchor="middle" style="white-space: pre;" direction="ltr" dominant-baseline="alphabetic">PDS bsky.social</text><text x="162" y="30.0302734375" font-family="Helvetica, sans-serif, Segoe UI Emoji" font-size="14px" fill="#1e1e1e" text-anchor="middle" style="white-space: pre;" direction="ltr" dominant-baseline="alphabetic">createSession · createRecord · uploadBlob</text><text x="162" y="47.5302734375" font-family="Helvetica, sans-serif, Segoe UI Emoji" font-size="14px" fill="#1e1e1e" text-anchor="middle" style="white-space: pre;" direction="ltr" dominant-baseline="alphabetic">putRecord (pin) · getPosts (viewer state)</text></g><g stroke-linecap="round" transform="translate(1844 719) rotate(0 110 35)"><path d="M17.5 0 C73.29 0, 129.07 0, 202.5 0 C214.17 0, 220 5.83, 220 17.5 C220 25.53, 220 33.56, 220 52.5 C220 64.17, 214.17 70, 202.5 70 C159.17 70, 115.83 70, 17.5 70 C5.83 70, 0 64.17, 0 52.5 C0 39.99, 0 27.49, 0 17.5 C0 5.83, 5.83 0, 17.5 0" stroke="none" stroke-width="0" fill="#e8eefb"></path><path d="M17.5 0 C85.2 0, 152.91 0, 202.5 0 M17.5 0 C83.96 0, 150.43 0, 202.5 0 M202.5 0 C214.17 0, 220 5.83, 220 17.5 M202.5 0 C214.17 0, 220 5.83, 220 17.5 M220 17.5 C220 28.36, 220 39.22, 220 52.5 M220 17.5 C220 27.38, 220 37.27, 220 52.5 M220 52.5 C220 64.17, 214.17 70, 202.5 70 M220 52.5 C220 64.17, 214.17 70, 202.5 70 M202.5 70 C138.44 70, 74.39 70, 17.5 70 M202.5 70 C160.82 70, 119.14 70, 17.5 70 M17.5 70 C5.83 70, 0 64.17, 0 52.5 M17.5 70 C5.83 70, 0 64.17, 0 52.5 M0 52.5 C0 44.69, 0 36.88, 0 17.5 M0 52.5 C0 41.21, 0 29.92, 0 17.5 M0 17.5 C0 5.83, 5.83 0, 17.5 0 M0 17.5 C0 5.83, 5.83 0, 17.5 0" stroke="#3b5bdb" stroke-width="1" fill="none"></path></g><g transform="translate(1852 736.5) rotate(0 102 17.5)"><text x="102" y="12.5302734375" font-family="Helvetica, sans-serif, Segoe UI Emoji" font-size="14px" fill="#1e1e1e" text-anchor="middle" style="white-space: pre;" direction="ltr" dominant-baseline="alphabetic">Bluesky readers</text><text x="102" y="30.0302734375" font-family="Helvetica, sans-serif, Segoe UI Emoji" font-size="14px" fill="#1e1e1e" text-anchor="middle" style="white-space: pre;" direction="ltr" dominant-baseline="alphabetic">follow @hourstats.bsky.social</text></g><g stroke-linecap="round"><g transform="translate(344 249) rotate(0 140 47)"><path d="M0 0 C41.8 0, 83.61 0, 160 0 M0 0 C42.19 0, 84.38 0, 160 0 M160 0 C160 34.9, 160 69.81, 160 94 M160 0 C160 30, 160 60, 160 94 M160 94 C205.02 94, 250.05 94, 280 94 M160 94 C199.47 94, 238.93 94, 280 94" stroke="#1e1e1e" stroke-width="1" fill="none"></path></g><g transform="translate(344 249) rotate(0 140 47)"><path d="M256.51 102.55 C262.65 100.32, 268.78 98.08, 280 94 M256.51 102.55 C262.7 100.3, 268.9 98.04, 280 94" stroke="#1e1e1e" stroke-width="1" fill="none"></path></g><g transform="translate(344 249) rotate(0 140 47)"><path d="M256.51 85.45 C262.65 87.68, 268.78 89.92, 280 94 M256.51 85.45 C262.7 87.7, 268.9 89.96, 280 94" stroke="#1e1e1e" stroke-width="1" fill="none"></path></g></g><mask></mask><g transform="translate(363.9 216) rotate(0 60.099999999999994 15)"><text x="60.1" y="10.740234375" font-family="Helvetica, sans-serif, Segoe UI Emoji" font-size="12px" fill="#1e1e1e" text-anchor="middle" style="white-space: pre;" direction="ltr" dominant-baseline="alphabetic">firehose events</text><text x="60.1" y="25.740234375" font-family="Helvetica, sans-serif, Segoe UI Emoji" font-size="12px" fill="#1e1e1e" text-anchor="middle" style="white-space: pre;" direction="ltr" dominant-baseline="alphabetic">~all public posts</text></g><g stroke-linecap="round"><g transform="translate(224 499) rotate(0 80 0)"><path d="M0 0 C60.5 0, 121.01 0, 160 0 M0 0 C52.77 0, 105.53 0, 160 0" stroke="#1e1e1e" stroke-width="1" fill="none"></path></g><g transform="translate(224 499) rotate(0 80 0)"><path d="M136.51 8.55 C145.39 5.32, 154.28 2.08, 160 0 M136.51 8.55 C144.26 5.73, 152 2.91, 160 0" stroke="#1e1e1e" stroke-width="1" fill="none"></path></g><g transform="translate(224 499) rotate(0 80 0)"><path d="M136.51 -8.55 C145.39 -5.32, 154.28 -2.08, 160 0 M136.51 -8.55 C144.26 -5.73, 152 -2.91, 160 0" stroke="#1e1e1e" stroke-width="1" fill="none"></path></g></g><mask></mask><g transform="translate(197.7 481) rotate(0 106.30000000000001 7.5)"><text x="106.30000000000001" y="10.740234375" font-family="Helvetica, sans-serif, Segoe UI Emoji" font-size="12px" fill="#1e1e1e" text-anchor="middle" style="white-space: pre;" direction="ltr" dominant-baseline="alphabetic">deploy · logs · ssh · stats API</text></g><g stroke-linecap="round"><g transform="translate(624 499) rotate(0 -10 -52)"><path d="M0 0 C-6.54 0, -13.09 0, -20 0 M0 0 C-5.43 0, -10.86 0, -20 0 M-20 0 C-20 -24.33, -20 -48.67, -20 -104 M-20 0 C-20 -29.46, -20 -58.91, -20 -104 M-20 -104 C-13.13 -104, -6.26 -104, 0 -104 M-20 -104 C-15.97 -104, -11.94 -104, 0 -104" stroke="#1e1e1e" stroke-width="1" fill="none"></path></g><g transform="translate(624 499) rotate(0 -10 -52)"><path d="M-9.4 -100.58 C-6.32 -101.7, -3.25 -102.82, 0 -104 M-9.4 -100.58 C-6.85 -101.51, -4.3 -102.44, 0 -104" stroke="#1e1e1e" stroke-width="1" fill="none"></path></g><g transform="translate(624 499) rotate(0 -10 -52)"><path d="M-9.4 -107.42 C-6.32 -106.3, -3.25 -105.18, 0 -104 M-9.4 -107.42 C-6.85 -106.49, -4.3 -105.56, 0 -104" stroke="#1e1e1e" stroke-width="1" fill="none"></path></g></g><mask></mask><g transform="translate(610 439.5) rotate(0 20.5 7.5)"><text x="20.5" y="10.740234375" font-family="Helvetica, sans-serif, Segoe UI Emoji" font-size="12px" fill="#1e1e1e" text-anchor="middle" style="white-space: pre;" direction="ltr" dominant-baseline="alphabetic">hosts</text></g><g stroke-linecap="round"><g transform="translate(924 317) rotate(0 240 -71.5)"><path d="M0 0 C27.69 0, 55.38 0, 70 0 M0 0 C26.17 0, 52.34 0, 70 0 M70 0 C70 -54.88, 70 -109.77, 70 -143 M70 0 C70 -52.57, 70 -105.15, 70 -143 M70 -143 C181.6 -143, 293.2 -143, 480 -143 M70 -143 C199.96 -143, 329.92 -143, 480 -143" stroke="#1e1e1e" stroke-width="1" fill="none"></path></g><g transform="translate(924 317) rotate(0 240 -71.5)"><path d="M456.51 -134.45 C465.8 -137.83, 475.09 -141.21, 480 -143 M456.51 -134.45 C465.29 -137.65, 474.07 -140.84, 480 -143" stroke="#1e1e1e" stroke-width="1" fill="none"></path></g><g transform="translate(924 317) rotate(0 240 -71.5)"><path d="M456.51 -151.55 C465.8 -148.17, 475.09 -144.79, 480 -143 M456.51 -151.55 C465.29 -148.35, 474.07 -145.16, 480 -143" stroke="#1e1e1e" stroke-width="1" fill="none"></path></g></g><mask></mask><g transform="translate(1030 141) rotate(0 169 15)"><text x="169" y="10.740234375" font-family="Helvetica, sans-serif, Segoe UI Emoji" font-size="12px" fill="#1e1e1e" text-anchor="middle" style="white-space: pre;" direction="ltr" dominant-baseline="alphabetic">group TF-IDF terms · alt text · validate exemplars</text><text x="169" y="25.740234375" font-family="Helvetica, sans-serif, Segoe UI Emoji" font-size="12px" fill="#1e1e1e" text-anchor="middle" style="white-space: pre;" direction="ltr" dominant-baseline="alphabetic">150 calls per rolling 24 h</text></g><g stroke-linecap="round"><g transform="translate(924 336.5) rotate(0 240 -28.75)"><path d="M0 0 C17.73 0, 35.46 0, 60 0 M0 0 C16.24 0, 32.48 0, 60 0 M60 0 C60 -21.31, 60 -42.61, 60 -57.5 M60 0 C60 -21.59, 60 -43.19, 60 -57.5 M60 -57.5 C148.47 -57.5, 236.93 -57.5, 480 -57.5 M60 -57.5 C227.91 -57.5, 395.81 -57.5, 480 -57.5" stroke="#1e1e1e" stroke-width="1" fill="none"></path></g><g transform="translate(924 336.5) rotate(0 240 -28.75)"><path d="M456.51 -48.95 C463.45 -51.48, 470.39 -54, 480 -57.5 M456.51 -48.95 C462.87 -51.26, 469.22 -53.58, 480 -57.5" stroke="#1e1e1e" stroke-width="1" fill="none"></path></g><g transform="translate(924 336.5) rotate(0 240 -28.75)"><path d="M456.51 -66.05 C463.45 -63.52, 470.39 -61, 480 -57.5 M456.51 -66.05 C462.87 -63.74, 469.22 -61.42, 480 -57.5" stroke="#1e1e1e" stroke-width="1" fill="none"></path></g></g><mask></mask><g transform="translate(1031.6 261) rotate(0 162.39999999999998 7.5)"><text x="162.4" y="10.740234375" font-family="Helvetica, sans-serif, Segoe UI Emoji" font-size="12px" fill="#1e1e1e" text-anchor="middle" style="white-space: pre;" direction="ltr" dominant-baseline="alphabetic">headline context for grouping · 3 s, best effort</text></g><g stroke-linecap="round"><g transform="translate(924 356) rotate(0 240 26.5)"><path d="M0 0 C11.15 0, 22.3 0, 50 0 M0 0 C12.47 0, 24.95 0, 50 0 M50 0 C50 20.48, 50 40.97, 50 53 M50 0 C50 13.75, 50 27.5, 50 53 M50 53 C138.98 53, 227.95 53, 480 53 M50 53 C192.39 53, 334.78 53, 480 53" stroke="#1e1e1e" stroke-width="1" fill="none"></path></g><g transform="translate(924 356) rotate(0 240 26.5)"><path d="M456.51 61.55 C461.75 59.64, 466.99 57.74, 480 53 M456.51 61.55 C462.37 59.42, 468.23 57.28, 480 53" stroke="#1e1e1e" stroke-width="1" fill="none"></path></g><g transform="translate(924 356) rotate(0 240 26.5)"><path d="M456.51 44.45 C461.75 46.36, 466.99 48.26, 480 53 M456.51 44.45 C462.37 46.58, 468.23 48.72, 480 53" stroke="#1e1e1e" stroke-width="1" fill="none"></path></g></g><mask></mask><g transform="translate(1079.4 391) rotate(0 109.60000000000002 7.5)"><text x="109.60000000000001" y="10.740234375" font-family="Helvetica, sans-serif, Segoe UI Emoji" font-size="12px" fill="#1e1e1e" text-anchor="middle" style="white-space: pre;" direction="ltr" dominant-baseline="alphabetic">daily backup of essential tables</text></g><g stroke-linecap="round"><g transform="translate(924 375.5) rotate(0 240 64.25)"><path d="M0 0 C12.66 0, 25.31 0, 40 0 M40 0 C40 50.03, 40 100.07, 40 128.5 M40 128.5 C207.82 128.5, 375.64 128.5, 480 128.5" stroke="#1e1e1e" stroke-width="1.5" fill="none" stroke-dasharray="8 9"></path></g><g transform="translate(924 375.5) rotate(0 240 64.25)"><path d="M456.51 137.05 C463.94 134.35, 471.37 131.64, 480 128.5" stroke="#1e1e1e" stroke-width="1.5" fill="none"></path></g><g transform="translate(924 375.5) rotate(0 240 64.25)"><path d="M456.51 119.95 C463.94 122.65, 471.37 125.36, 480 128.5" stroke="#1e1e1e" stroke-width="1.5" fill="none"></path></g></g><mask></mask><g transform="translate(1071.1 486) rotate(0 112.89999999999998 7.5)"><text x="112.9" y="10.740234375" font-family="Helvetica, sans-serif, Segoe UI Emoji" font-size="12px" fill="#1e1e1e" text-anchor="middle" style="white-space: pre;" direction="ltr" dominant-baseline="alphabetic">link targets only · no HTTP calls</text></g><g stroke-linecap="round"><g transform="translate(924 395) rotate(0 240 124.5)"><path d="M0 0 C17.26 0, 34.53 0, 50 0 M0 0 C15.22 0, 30.43 0, 50 0 M50 0 C50 94.46, 50 188.92, 50 249 M50 0 C50 85.29, 50 170.58, 50 249 M50 249 C165.37 249, 280.74 249, 480 249 M50 249 C203.93 249, 357.86 249, 480 249" stroke="#1e1e1e" stroke-width="1" fill="none"></path></g><g transform="translate(924 395) rotate(0 240 124.5)"><path d="M456.51 257.55 C464.62 254.6, 472.73 251.65, 480 249 M456.51 257.55 C463.66 254.95, 470.81 252.35, 480 249" stroke="#1e1e1e" stroke-width="1" fill="none"></path></g><g transform="translate(924 395) rotate(0 240 124.5)"><path d="M456.51 240.45 C464.62 243.4, 472.73 246.35, 480 249 M456.51 240.45 C463.66 243.05, 470.81 245.65, 480 249" stroke="#1e1e1e" stroke-width="1" fill="none"></path></g></g><mask></mask><g transform="translate(1023.3 626) rotate(0 165.70000000000005 7.5)"><text x="165.70000000000002" y="10.740234375" font-family="Helvetica, sans-serif, Segoe UI Emoji" font-size="12px" fill="#1e1e1e" text-anchor="middle" style="white-space: pre;" direction="ltr" dominant-baseline="alphabetic">hydrate engagement · 25 URIs per call, 10 workers</text></g><g stroke-linecap="round"><g transform="translate(924 414.5) rotate(0 240 169.75)"><path d="M0 0 C14.58 0, 29.16 0, 60 0 M0 0 C17.82 0, 35.64 0, 60 0 M60 0 C60 96.44, 60 192.87, 60 339.5 M60 0 C60 73.59, 60 147.19, 60 339.5 M60 339.5 C161.13 339.5, 262.26 339.5, 480 339.5 M60 339.5 C221.36 339.5, 382.72 339.5, 480 339.5" stroke="#1e1e1e" stroke-width="1" fill="none"></path></g><g transform="translate(924 414.5) rotate(0 240 169.75)"><path d="M456.51 348.05 C462.22 345.97, 467.93 343.89, 480 339.5 M456.51 348.05 C463.49 345.51, 470.46 342.97, 480 339.5" stroke="#1e1e1e" stroke-width="1" fill="none"></path></g><g transform="translate(924 414.5) rotate(0 240 169.75)"><path d="M456.51 330.95 C462.22 333.03, 467.93 335.11, 480 339.5 M456.51 330.95 C463.49 333.49, 470.46 336.03, 480 339.5" stroke="#1e1e1e" stroke-width="1" fill="none"></path></g></g><mask></mask><g transform="translate(1031.6 721) rotate(0 162.39999999999998 15)"><text x="162.4" y="10.740234375" font-family="Helvetica, sans-serif, Segoe UI Emoji" font-size="12px" fill="#1e1e1e" text-anchor="middle" style="white-space: pre;" direction="ltr" dominant-baseline="alphabetic">summary, sparkline, trending reply, daily quote,</text><text x="162.4" y="25.740234375" font-family="Helvetica, sans-serif, Segoe UI Emoji" font-size="12px" fill="#1e1e1e" text-anchor="middle" style="white-space: pre;" direction="ltr" dominant-baseline="alphabetic">yearly chart, weekly and monthly reports</text></g><g stroke-linecap="round"><g transform="translate(1744 754) rotate(0 50 0)"><path d="M0 0 C36.76 0, 73.51 0, 100 0 M0 0 C30.51 0, 61.01 0, 100 0" stroke="#1e1e1e" stroke-width="1" fill="none"></path></g><g transform="translate(1744 754) rotate(0 50 0)"><path d="M76.51 8.55 C85.14 5.41, 93.78 2.26, 100 0 M76.51 8.55 C83.67 5.94, 90.84 3.33, 100 0" stroke="#1e1e1e" stroke-width="1" fill="none"></path></g><g transform="translate(1744 754) rotate(0 50 0)"><path d="M76.51 -8.55 C85.14 -5.41, 93.78 -2.26, 100 0 M76.51 -8.55 C83.67 -5.94, 90.84 -3.33, 100 0" stroke="#1e1e1e" stroke-width="1" fill="none"></path></g></g><mask></mask><g transform="translate(1733.9 721) rotate(0 60.10000000000002 15)"><text x="60.1" y="10.740234375" font-family="Helvetica, sans-serif, Segoe UI Emoji" font-size="12px" fill="#1e1e1e" text-anchor="middle" style="white-space: pre;" direction="ltr" dominant-baseline="alphabetic">posts appear in</text><text x="60.1" y="25.740234375" font-family="Helvetica, sans-serif, Segoe UI Emoji" font-size="12px" fill="#1e1e1e" text-anchor="middle" style="white-space: pre;" direction="ltr" dominant-baseline="alphabetic">feeds and threads</text></g></svg>