<svg version="1.1" xmlns="http://www.w3.org/2000/svg" viewBox="0 0 1888 718" width="3776" height="1436"><!-- svg-source:excalidraw --><metadata></metadata><defs><style class="style-fonts">
      </style></defs><rect x="0" y="0" width="1888" height="718" fill="#ffffff"></rect><g transform="translate(24 24) rotate(0 600 12)"><text x="0" y="17.900390625" font-family="Helvetica, sans-serif, Segoe UI Emoji" font-size="20px" fill="#1e1e1e" text-anchor="start" style="white-space: pre;" direction="ltr" dominant-baseline="alphabetic">HourStats · static components</text></g><g transform="translate(24 52) rotate(0 600 9)"><text x="0" y="11.63525390625" font-family="Helvetica, sans-serif, Segoe UI Emoji" font-size="13px" fill="#495057" text-anchor="start" style="white-space: pre;" direction="ltr" dominant-baseline="alphabetic">Goroutines inside the one process, the packages each one drives, the shared SQLite store, and the services each part calls.</text></g><g stroke-linecap="round" transform="translate(24 134) rotate(0 110 35)"><path d="M17.5 0 C58.28 0, 99.05 0, 202.5 0 C214.17 0, 220 5.83, 220 17.5 C220 24.86, 220 32.22, 220 52.5 C220 64.17, 214.17 70, 202.5 70 C140.99 70, 79.48 70, 17.5 70 C5.83 70, 0 64.17, 0 52.5 C0 42.93, 0 33.36, 0 17.5 C0 5.83, 5.83 0, 17.5 0" stroke="none" stroke-width="0" fill="#f4f4f5"></path><path d="M17.5 0 C59.08 0, 100.66 0, 202.5 0 M17.5 0 C57.88 0, 98.26 0, 202.5 0 M202.5 0 C214.17 0, 220 5.83, 220 17.5 M202.5 0 C214.17 0, 220 5.83, 220 17.5 M220 17.5 C220 26.85, 220 36.2, 220 52.5 M220 17.5 C220 29.52, 220 41.54, 220 52.5 M220 52.5 C220 64.17, 214.17 70, 202.5 70 M220 52.5 C220 64.17, 214.17 70, 202.5 70 M202.5 70 C129.53 70, 56.56 70, 17.5 70 M202.5 70 C141.47 70, 80.45 70, 17.5 70 M17.5 70 C5.83 70, 0 64.17, 0 52.5 M17.5 70 C5.83 70, 0 64.17, 0 52.5 M0 52.5 C0 43.51, 0 34.52, 0 17.5 M0 52.5 C0 41, 0 29.51, 0 17.5 M0 17.5 C0 5.83, 5.83 0, 17.5 0 M0 17.5 C0 5.83, 5.83 0, 17.5 0" stroke="#868e96" stroke-width="1" fill="none"></path></g><g transform="translate(32 151.5) rotate(0 102 17.5)"><text x="102" y="12.5302734375" font-family="Helvetica, sans-serif, Segoe UI Emoji" font-size="14px" fill="#1e1e1e" text-anchor="middle" style="white-space: pre;" direction="ltr" dominant-baseline="alphabetic">Jetstream firehose</text><text x="102" y="30.0302734375" font-family="Helvetica, sans-serif, Segoe UI Emoji" font-size="14px" fill="#1e1e1e" text-anchor="middle" style="white-space: pre;" direction="ltr" dominant-baseline="alphabetic">WebSocket</text></g><g stroke-linecap="round" transform="translate(304 94) rotate(0 660 200)"><path d="M32 0 C405.13 0, 778.25 0, 1288 0 M1288 0 C1309.33 0, 1320 10.67, 1320 32 M1320 32 C1320 109.77, 1320 187.53, 1320 368 M1320 368 C1320 389.33, 1309.33 400, 1288 400 M1288 400 C996.1 400, 704.2 400, 32 400 M32 400 C10.67 400, 0 389.33, 0 368 M0 368 C0 254.71, 0 141.41, 0 32 M0 32 C0 10.67, 10.67 0, 32 0" stroke="#adb5bd" stroke-width="1.5" fill="none" stroke-dasharray="8 9"></path></g><g transform="translate(316 102) rotate(0 648 9.375)"><text x="0" y="13.42529296875" font-family="Helvetica, sans-serif, Segoe UI Emoji" font-size="15px" fill="#495057" text-anchor="start" style="white-space: pre;" direction="ltr" dominant-baseline="alphabetic">hourstats process · cmd/hourstats · one Fly machine</text></g><g stroke-linecap="round" transform="translate(344 134) rotate(0 130 50)"><path d="M25 0 C96.07 0, 167.15 0, 235 0 C251.67 0, 260 8.33, 260 25 C260 42.59, 260 60.19, 260 75 C260 91.67, 251.67 100, 235 100 C189.96 100, 144.92 100, 25 100 C8.33 100, 0 91.67, 0 75 C0 60.9, 0 46.79, 0 25 C0 8.33, 8.33 0, 25 0" stroke="none" stroke-width="0" fill="#e8eefb"></path><path d="M25 0 C88.36 0, 151.72 0, 235 0 M25 0 C83.21 0, 141.42 0, 235 0 M235 0 C251.67 0, 260 8.33, 260 25 M235 0 C251.67 0, 260 8.33, 260 25 M260 25 C260 40.95, 260 56.91, 260 75 M260 25 C260 35.04, 260 45.09, 260 75 M260 75 C260 91.67, 251.67 100, 235 100 M260 75 C260 91.67, 251.67 100, 235 100 M235 100 C175.94 100, 116.89 100, 25 100 M235 100 C174.79 100, 114.59 100, 25 100 M25 100 C8.33 100, 0 91.67, 0 75 M25 100 C8.33 100, 0 91.67, 0 75 M0 75 C0 57.63, 0 40.26, 0 25 M0 75 C0 60.41, 0 45.82, 0 25 M0 25 C0 8.33, 8.33 0, 25 0 M0 25 C0 8.33, 8.33 0, 25 0" stroke="#3b5bdb" stroke-width="1" fill="none"></path></g><g transform="translate(352 149) rotate(0 122 35)"><text x="122" y="12.5302734375" font-family="Helvetica, sans-serif, Segoe UI Emoji" font-size="14px" fill="#1e1e1e" text-anchor="middle" style="white-space: pre;" direction="ltr" dominant-baseline="alphabetic">Jetstream consumer</text><text x="122" y="30.0302734375" font-family="Helvetica, sans-serif, Segoe UI Emoji" font-size="14px" fill="#1e1e1e" text-anchor="middle" style="white-space: pre;" direction="ltr" dominant-baseline="alphabetic">internal/jetstream · stats</text><text x="122" y="47.5302734375" font-family="Helvetica, sans-serif, Segoe UI Emoji" font-size="14px" fill="#1e1e1e" text-anchor="middle" style="white-space: pre;" direction="ltr" dominant-baseline="alphabetic">English filter · tokenize</text><text x="122" y="65.0302734375" font-family="Helvetica, sans-serif, Segoe UI Emoji" font-size="14px" fill="#1e1e1e" text-anchor="middle" style="white-space: pre;" direction="ltr" dominant-baseline="alphabetic">cursor saved every 10 s</text></g><g stroke-linecap="round" transform="translate(764 124) rotate(0 260 60)"><path d="M30 0 C129.01 0, 228.01 0, 490 0 C510 0, 520 10, 520 30 C520 53.74, 520 77.49, 520 90 C520 110, 510 120, 490 120 C368.79 120, 247.59 120, 30 120 C10 120, 0 110, 0 90 C0 68.12, 0 46.24, 0 30 C0 10, 10 0, 30 0" stroke="none" stroke-width="0" fill="#e8eefb"></path><path d="M30 0 C189.38 0, 348.77 0, 490 0 M30 0 C129.09 0, 228.18 0, 490 0 M490 0 C510 0, 520 10, 520 30 M490 0 C510 0, 520 10, 520 30 M520 30 C520 50.87, 520 71.73, 520 90 M520 30 C520 44.97, 520 59.94, 520 90 M520 90 C520 110, 510 120, 490 120 M520 90 C520 110, 510 120, 490 120 M490 120 C382.73 120, 275.45 120, 30 120 M490 120 C314.59 120, 139.19 120, 30 120 M30 120 C10 120, 0 110, 0 90 M30 120 C10 120, 0 110, 0 90 M0 90 C0 74.22, 0 58.43, 0 30 M0 90 C0 77.92, 0 65.84, 0 30 M0 30 C0 10, 10 0, 30 0 M0 30 C0 10, 10 0, 30 0" stroke="#3b5bdb" stroke-width="1" fill="none"></path></g><g transform="translate(772 149) rotate(0 252 35)"><text x="252" y="12.5302734375" font-family="Helvetica, sans-serif, Segoe UI Emoji" font-size="14px" fill="#1e1e1e" text-anchor="middle" style="white-space: pre;" direction="ltr" dominant-baseline="alphabetic">Scheduler loop</text><text x="252" y="30.0302734375" font-family="Helvetica, sans-serif, Segoe UI Emoji" font-size="14px" fill="#1e1e1e" text-anchor="middle" style="white-space: pre;" direction="ltr" dominant-baseline="alphabetic">wall-clock tickers + SIGTERM</text><text x="252" y="47.5302734375" font-family="Helvetica, sans-serif, Segoe UI Emoji" font-size="14px" fill="#1e1e1e" text-anchor="middle" style="white-space: pre;" direction="ltr" dominant-baseline="alphabetic">5 min stall check · 5 min WAL checkpoint · 30 min stats snapshot</text><text x="252" y="65.0302734375" font-family="Helvetica, sans-serif, Segoe UI Emoji" font-size="14px" fill="#1e1e1e" text-anchor="middle" style="white-space: pre;" direction="ltr" dominant-baseline="alphabetic">an overlapping tick is skipped, not queued</text></g><g stroke-linecap="round" transform="translate(344 334) rotate(0 130 50)"><path d="M25 0 C91.64 0, 158.28 0, 235 0 C251.67 0, 260 8.33, 260 25 C260 42.31, 260 59.62, 260 75 C260 91.67, 251.67 100, 235 100 C176.23 100, 117.46 100, 25 100 C8.33 100, 0 91.67, 0 75 C0 55.25, 0 35.49, 0 25 C0 8.33, 8.33 0, 25 0" stroke="none" stroke-width="0" fill="#e8eefb"></path><path d="M25 0 C70.53 0, 116.06 0, 235 0 M25 0 C81.36 0, 137.72 0, 235 0 M235 0 C251.67 0, 260 8.33, 260 25 M235 0 C251.67 0, 260 8.33, 260 25 M260 25 C260 44.34, 260 63.69, 260 75 M260 25 C260 43.16, 260 61.33, 260 75 M260 75 C260 91.67, 251.67 100, 235 100 M260 75 C260 91.67, 251.67 100, 235 100 M235 100 C160.08 100, 85.17 100, 25 100 M235 100 C189.54 100, 144.09 100, 25 100 M25 100 C8.33 100, 0 91.67, 0 75 M25 100 C8.33 100, 0 91.67, 0 75 M0 75 C0 59.19, 0 43.37, 0 25 M0 75 C0 59.16, 0 43.32, 0 25 M0 25 C0 8.33, 8.33 0, 25 0 M0 25 C0 8.33, 8.33 0, 25 0" stroke="#3b5bdb" stroke-width="1" fill="none"></path></g><g transform="translate(352 357.75) rotate(0 122 26.25)"><text x="122" y="12.5302734375" font-family="Helvetica, sans-serif, Segoe UI Emoji" font-size="14px" fill="#1e1e1e" text-anchor="middle" style="white-space: pre;" direction="ltr" dominant-baseline="alphabetic">Write flusher</text><text x="122" y="30.0302734375" font-family="Helvetica, sans-serif, Segoe UI Emoji" font-size="14px" fill="#1e1e1e" text-anchor="middle" style="white-space: pre;" direction="ltr" dominant-baseline="alphabetic">internal/store</text><text x="122" y="47.5302734375" font-family="Helvetica, sans-serif, Segoe UI Emoji" font-size="14px" fill="#1e1e1e" text-anchor="middle" style="white-space: pre;" direction="ltr" dominant-baseline="alphabetic">batch 1500 rows or 2 s</text></g><g stroke-linecap="round" transform="translate(724 324) rotate(0 150 65)"><path d="M32 0 C106.22 0, 180.44 0, 268 0 C289.33 0, 300 10.67, 300 32 C300 49.09, 300 66.17, 300 98 C300 119.33, 289.33 130, 268 130 C198.39 130, 128.79 130, 32 130 C10.67 130, 0 119.33, 0 98 C0 74.58, 0 51.16, 0 32 C0 10.67, 10.67 0, 32 0" stroke="none" stroke-width="0" fill="#e8eefb"></path><path d="M32 0 C123.24 0, 214.48 0, 268 0 M32 0 C120.27 0, 208.54 0, 268 0 M268 0 C289.33 0, 300 10.67, 300 32 M268 0 C289.33 0, 300 10.67, 300 32 M300 32 C300 50.67, 300 69.35, 300 98 M300 32 C300 48.53, 300 65.07, 300 98 M300 98 C300 119.33, 289.33 130, 268 130 M300 98 C300 119.33, 289.33 130, 268 130 M268 130 C189.89 130, 111.77 130, 32 130 M268 130 C199.67 130, 131.33 130, 32 130 M32 130 C10.67 130, 0 119.33, 0 98 M32 130 C10.67 130, 0 119.33, 0 98 M0 98 C0 84.74, 0 71.48, 0 32 M0 98 C0 72.54, 0 47.08, 0 32 M0 32 C0 10.67, 10.67 0, 32 0 M0 32 C0 10.67, 10.67 0, 32 0" stroke="#3b5bdb" stroke-width="1" fill="none"></path></g><g transform="translate(732 354) rotate(0 142 35)"><text x="142" y="12.5302734375" font-family="Helvetica, sans-serif, Segoe UI Emoji" font-size="14px" fill="#1e1e1e" text-anchor="middle" style="white-space: pre;" direction="ltr" dominant-baseline="alphabetic">Analysis cycle · cycleGuard</text><text x="142" y="30.0302734375" font-family="Helvetica, sans-serif, Segoe UI Emoji" font-size="14px" fill="#1e1e1e" text-anchor="middle" style="white-space: pre;" direction="ltr" dominant-baseline="alphabetic">hydrator · analyzer · topics</text><text x="142" y="47.5302734375" font-family="Helvetica, sans-serif, Segoe UI Emoji" font-size="14px" fill="#1e1e1e" text-anchor="middle" style="white-space: pre;" direction="ltr" dominant-baseline="alphabetic">sparkline · client · formatter</text><text x="142" y="65.0302734375" font-family="Helvetica, sans-serif, Segoe UI Emoji" font-size="14px" fill="#1e1e1e" text-anchor="middle" style="white-space: pre;" direction="ltr" dominant-baseline="alphabetic">prod: hourly at :55</text></g><g stroke-linecap="round" transform="translate(1054 324) rotate(0 130 65)"><path d="M32 0 C105.31 0, 178.62 0, 228 0 C249.33 0, 260 10.67, 260 32 C260 54.03, 260 76.06, 260 98 C260 119.33, 249.33 130, 228 130 C176.58 130, 125.16 130, 32 130 C10.67 130, 0 119.33, 0 98 C0 83.53, 0 69.06, 0 32 C0 10.67, 10.67 0, 32 0" stroke="none" stroke-width="0" fill="#e8eefb"></path><path d="M32 0 C94 0, 156.01 0, 228 0 M32 0 C88.21 0, 144.41 0, 228 0 M228 0 C249.33 0, 260 10.67, 260 32 M228 0 C249.33 0, 260 10.67, 260 32 M260 32 C260 46.04, 260 60.07, 260 98 M260 32 C260 50.29, 260 68.59, 260 98 M260 98 C260 119.33, 249.33 130, 228 130 M260 98 C260 119.33, 249.33 130, 228 130 M228 130 C172.3 130, 116.59 130, 32 130 M228 130 C172.74 130, 117.49 130, 32 130 M32 130 C10.67 130, 0 119.33, 0 98 M32 130 C10.67 130, 0 119.33, 0 98 M0 98 C0 79.46, 0 60.92, 0 32 M0 98 C0 72, 0 46, 0 32 M0 32 C0 10.67, 10.67 0, 32 0 M0 32 C0 10.67, 10.67 0, 32 0" stroke="#3b5bdb" stroke-width="1" fill="none"></path></g><g transform="translate(1062 354) rotate(0 122 35)"><text x="122" y="12.5302734375" font-family="Helvetica, sans-serif, Segoe UI Emoji" font-size="14px" fill="#1e1e1e" text-anchor="middle" style="white-space: pre;" direction="ltr" dominant-baseline="alphabetic">Background job · jobs guard</text><text x="122" y="30.0302734375" font-family="Helvetica, sans-serif, Segoe UI Emoji" font-size="14px" fill="#1e1e1e" text-anchor="middle" style="white-space: pre;" direction="ltr" dominant-baseline="alphabetic">backup · sparkline · client</text><text x="122" y="47.5302734375" font-family="Helvetica, sans-serif, Segoe UI Emoji" font-size="14px" fill="#1e1e1e" text-anchor="middle" style="white-space: pre;" direction="ltr" dominant-baseline="alphabetic">daily 00:00 · yearly 01:00</text><text x="122" y="65.0302734375" font-family="Helvetica, sans-serif, Segoe UI Emoji" font-size="14px" fill="#1e1e1e" text-anchor="middle" style="white-space: pre;" direction="ltr" dominant-baseline="alphabetic">reports</text></g><g stroke-linecap="round" transform="translate(1344 324) rotate(0 130 65)"><path d="M32 0 C82.68 0, 133.36 0, 228 0 C249.33 0, 260 10.67, 260 32 C260 55.26, 260 78.53, 260 98 C260 119.33, 249.33 130, 228 130 C152.96 130, 77.92 130, 32 130 C10.67 130, 0 119.33, 0 98 C0 83.29, 0 68.58, 0 32 C0 10.67, 10.67 0, 32 0" stroke="none" stroke-width="0" fill="#e8eefb"></path><path d="M32 0 C79.6 0, 127.2 0, 228 0 M32 0 C103.65 0, 175.31 0, 228 0 M228 0 C249.33 0, 260 10.67, 260 32 M228 0 C249.33 0, 260 10.67, 260 32 M260 32 C260 51.82, 260 71.64, 260 98 M260 32 C260 46.06, 260 60.11, 260 98 M260 98 C260 119.33, 249.33 130, 228 130 M260 98 C260 119.33, 249.33 130, 228 130 M228 130 C178.71 130, 129.43 130, 32 130 M228 130 C153.47 130, 78.94 130, 32 130 M32 130 C10.67 130, 0 119.33, 0 98 M32 130 C10.67 130, 0 119.33, 0 98 M0 98 C0 78.61, 0 59.22, 0 32 M0 98 C0 72.65, 0 47.29, 0 32 M0 32 C0 10.67, 10.67 0, 32 0 M0 32 C0 10.67, 10.67 0, 32 0" stroke="#3b5bdb" stroke-width="1" fill="none"></path></g><g transform="translate(1352 354) rotate(0 122 35)"><text x="122" y="12.5302734375" font-family="Helvetica, sans-serif, Segoe UI Emoji" font-size="14px" fill="#1e1e1e" text-anchor="middle" style="white-space: pre;" direction="ltr" dominant-baseline="alphabetic">Stats HTTP API</text><text x="122" y="30.0302734375" font-family="Helvetica, sans-serif, Segoe UI Emoji" font-size="14px" fill="#1e1e1e" text-anchor="middle" style="white-space: pre;" direction="ltr" dominant-baseline="alphabetic">internal/statsapi · sparkline</text><text x="122" y="47.5302734375" font-family="Helvetica, sans-serif, Segoe UI Emoji" font-size="14px" fill="#1e1e1e" text-anchor="middle" style="white-space: pre;" direction="ltr" dominant-baseline="alphabetic">:9111 GET /stats/*</text><text x="122" y="65.0302734375" font-family="Helvetica, sans-serif, Segoe UI Emoji" font-size="14px" fill="#1e1e1e" text-anchor="middle" style="white-space: pre;" direction="ltr" dominant-baseline="alphabetic">private network only</text></g><g stroke-linecap="round" transform="translate(1664 344) rotate(0 100 45)"><path d="M22.5 0 C65.41 0, 108.32 0, 177.5 0 C192.5 0, 200 7.5, 200 22.5 C200 34.74, 200 46.98, 200 67.5 C200 82.5, 192.5 90, 177.5 90 C118.87 90, 60.24 90, 22.5 90 C7.5 90, 0 82.5, 0 67.5 C0 56.32, 0 45.14, 0 22.5 C0 7.5, 7.5 0, 22.5 0" stroke="none" stroke-width="0" fill="#f4f4f5"></path><path d="M22.5 0 C70.01 0, 117.52 0, 177.5 0 M22.5 0 C69.44 0, 116.38 0, 177.5 0 M177.5 0 C192.5 0, 200 7.5, 200 22.5 M177.5 0 C192.5 0, 200 7.5, 200 22.5 M200 22.5 C200 36.67, 200 50.85, 200 67.5 M200 22.5 C200 33.87, 200 45.24, 200 67.5 M200 67.5 C200 82.5, 192.5 90, 177.5 90 M200 67.5 C200 82.5, 192.5 90, 177.5 90 M177.5 90 C120.71 90, 63.92 90, 22.5 90 M177.5 90 C138.76 90, 100.03 90, 22.5 90 M22.5 90 C7.5 90, 0 82.5, 0 67.5 M22.5 90 C7.5 90, 0 82.5, 0 67.5 M0 67.5 C0 51.11, 0 34.72, 0 22.5 M0 67.5 C0 54.13, 0 40.76, 0 22.5 M0 22.5 C0 7.5, 7.5 0, 22.5 0 M0 22.5 C0 7.5, 7.5 0, 22.5 0" stroke="#868e96" stroke-width="1" fill="none"></path></g><g transform="translate(1672 362.75) rotate(0 92 26.25)"><text x="92" y="12.5302734375" font-family="Helvetica, sans-serif, Segoe UI Emoji" font-size="14px" fill="#1e1e1e" text-anchor="middle" style="white-space: pre;" direction="ltr" dominant-baseline="alphabetic">Operator</text><text x="92" y="30.0302734375" font-family="Helvetica, sans-serif, Segoe UI Emoji" font-size="14px" fill="#1e1e1e" text-anchor="middle" style="white-space: pre;" direction="ltr" dominant-baseline="alphabetic">fly proxy 9111</text><text x="92" y="47.5302734375" font-family="Helvetica, sans-serif, Segoe UI Emoji" font-size="14px" fill="#1e1e1e" text-anchor="middle" style="white-space: pre;" direction="ltr" dominant-baseline="alphabetic">hourstats-stats CLI</text></g><g stroke-linecap="round" transform="translate(344 564) rotate(0 130 65)"><path d="M32 0 C89.45 0, 146.9 0, 228 0 C249.33 0, 260 10.67, 260 32 C260 47.97, 260 63.94, 260 98 C260 119.33, 249.33 130, 228 130 C164.72 130, 101.44 130, 32 130 C10.67 130, 0 119.33, 0 98 C0 73.98, 0 49.95, 0 32 C0 10.67, 10.67 0, 32 0" stroke="none" stroke-width="0" fill="#e6fcf5"></path><path d="M32 0 C87.48 0, 142.97 0, 228 0 M32 0 C90.49 0, 148.99 0, 228 0 M228 0 C249.33 0, 260 10.67, 260 32 M228 0 C249.33 0, 260 10.67, 260 32 M260 32 C260 51.83, 260 71.65, 260 98 M260 32 C260 50.58, 260 69.16, 260 98 M260 98 C260 119.33, 249.33 130, 228 130 M260 98 C260 119.33, 249.33 130, 228 130 M228 130 C174.52 130, 121.03 130, 32 130 M228 130 C161.25 130, 94.51 130, 32 130 M32 130 C10.67 130, 0 119.33, 0 98 M32 130 C10.67 130, 0 119.33, 0 98 M0 98 C0 75.36, 0 52.71, 0 32 M0 98 C0 78.76, 0 59.52, 0 32 M0 32 C0 10.67, 10.67 0, 32 0 M0 32 C0 10.67, 10.67 0, 32 0" stroke="#0ca678" stroke-width="1" fill="none"></path></g><g transform="translate(352 594) rotate(0 122 35)"><text x="122" y="12.5302734375" font-family="Helvetica, sans-serif, Segoe UI Emoji" font-size="14px" fill="#1e1e1e" text-anchor="middle" style="white-space: pre;" direction="ltr" dominant-baseline="alphabetic">internal/store</text><text x="122" y="30.0302734375" font-family="Helvetica, sans-serif, Segoe UI Emoji" font-size="14px" fill="#1e1e1e" text-anchor="middle" style="white-space: pre;" direction="ltr" dominant-baseline="alphabetic">SQLite WAL · /data/hourstats-{profile}.db</text><text x="122" y="47.5302734375" font-family="Helvetica, sans-serif, Segoe UI Emoji" font-size="14px" fill="#1e1e1e" text-anchor="middle" style="white-space: pre;" direction="ltr" dominant-baseline="alphabetic">writeDB 1 conn · readDB 3 conns</text><text x="122" y="65.0302734375" font-family="Helvetica, sans-serif, Segoe UI Emoji" font-size="14px" fill="#1e1e1e" text-anchor="middle" style="white-space: pre;" direction="ltr" dominant-baseline="alphabetic">maintDB 1 conn for checkpoints</text></g><g stroke-linecap="round" transform="translate(694 564) rotate(0 80 40)"><path d="M20 0 C64.64 0, 109.28 0, 140 0 C153.33 0, 160 6.67, 160 20 C160 28.04, 160 36.07, 160 60 C160 73.33, 153.33 80, 140 80 C101.23 80, 62.47 80, 20 80 C6.67 80, 0 73.33, 0 60 C0 49.14, 0 38.27, 0 20 C0 6.67, 6.67 0, 20 0" stroke="none" stroke-width="0" fill="#f4f4f5"></path><path d="M20 0 C55.03 0, 90.07 0, 140 0 M20 0 C47.95 0, 75.89 0, 140 0 M140 0 C153.33 0, 160 6.67, 160 20 M140 0 C153.33 0, 160 6.67, 160 20 M160 20 C160 30.93, 160 41.86, 160 60 M160 20 C160 32.98, 160 45.96, 160 60 M160 60 C160 73.33, 153.33 80, 140 80 M160 60 C160 73.33, 153.33 80, 140 80 M140 80 C105.91 80, 71.81 80, 20 80 M140 80 C106.98 80, 73.95 80, 20 80 M20 80 C6.67 80, 0 73.33, 0 60 M20 80 C6.67 80, 0 73.33, 0 60 M0 60 C0 50.16, 0 40.32, 0 20 M0 60 C0 44.03, 0 28.05, 0 20 M0 20 C0 6.67, 6.67 0, 20 0 M0 20 C0 6.67, 6.67 0, 20 0" stroke="#868e96" stroke-width="1" fill="none"></path></g><g transform="translate(702 586.5) rotate(0 72 17.5)"><text x="72" y="12.5302734375" font-family="Helvetica, sans-serif, Segoe UI Emoji" font-size="14px" fill="#1e1e1e" text-anchor="middle" style="white-space: pre;" direction="ltr" dominant-baseline="alphabetic">Public AppView</text><text x="72" y="30.0302734375" font-family="Helvetica, sans-serif, Segoe UI Emoji" font-size="14px" fill="#1e1e1e" text-anchor="middle" style="white-space: pre;" direction="ltr" dominant-baseline="alphabetic">getPosts</text></g><g stroke-linecap="round" transform="translate(884 564) rotate(0 80 40)"><path d="M20 0 C63.42 0, 106.84 0, 140 0 C153.33 0, 160 6.67, 160 20 C160 32.17, 160 44.34, 160 60 C160 73.33, 153.33 80, 140 80 C113.42 80, 86.83 80, 20 80 C6.67 80, 0 73.33, 0 60 C0 51.82, 0 43.64, 0 20 C0 6.67, 6.67 0, 20 0" stroke="none" stroke-width="0" fill="#f4f4f5"></path><path d="M20 0 C54.07 0, 88.13 0, 140 0 M20 0 C59.64 0, 99.29 0, 140 0 M140 0 C153.33 0, 160 6.67, 160 20 M140 0 C153.33 0, 160 6.67, 160 20 M160 20 C160 32.71, 160 45.43, 160 60 M160 20 C160 35.47, 160 50.94, 160 60 M160 60 C160 73.33, 153.33 80, 140 80 M160 60 C160 73.33, 153.33 80, 140 80 M140 80 C112.03 80, 84.07 80, 20 80 M140 80 C103.68 80, 67.36 80, 20 80 M20 80 C6.67 80, 0 73.33, 0 60 M20 80 C6.67 80, 0 73.33, 0 60 M0 60 C0 47.15, 0 34.3, 0 20 M0 60 C0 51.3, 0 42.59, 0 20 M0 20 C0 6.67, 6.67 0, 20 0 M0 20 C0 6.67, 6.67 0, 20 0" stroke="#868e96" stroke-width="1" fill="none"></path></g><g transform="translate(892 586.5) rotate(0 72 17.5)"><text x="72" y="12.5302734375" font-family="Helvetica, sans-serif, Segoe UI Emoji" font-size="14px" fill="#1e1e1e" text-anchor="middle" style="white-space: pre;" direction="ltr" dominant-baseline="alphabetic">Gemini +</text><text x="72" y="30.0302734375" font-family="Helvetica, sans-serif, Segoe UI Emoji" font-size="14px" fill="#1e1e1e" text-anchor="middle" style="white-space: pre;" direction="ltr" dominant-baseline="alphabetic">Google News</text></g><g stroke-linecap="round" transform="translate(1074 564) rotate(0 80 40)"><path d="M20 0 C55.62 0, 91.25 0, 140 0 C153.33 0, 160 6.67, 160 20 C160 31.22, 160 42.43, 160 60 C160 73.33, 153.33 80, 140 80 C93.45 80, 46.91 80, 20 80 C6.67 80, 0 73.33, 0 60 C0 47.65, 0 35.29, 0 20 C0 6.67, 6.67 0, 20 0" stroke="none" stroke-width="0" fill="#f4f4f5"></path><path d="M20 0 C53.75 0, 87.51 0, 140 0 M20 0 C62.53 0, 105.06 0, 140 0 M140 0 C153.33 0, 160 6.67, 160 20 M140 0 C153.33 0, 160 6.67, 160 20 M160 20 C160 35.89, 160 51.79, 160 60 M160 20 C160 30.89, 160 41.78, 160 60 M160 60 C160 73.33, 153.33 80, 140 80 M160 60 C160 73.33, 153.33 80, 140 80 M140 80 C101.84 80, 63.68 80, 20 80 M140 80 C106.64 80, 73.29 80, 20 80 M20 80 C6.67 80, 0 73.33, 0 60 M20 80 C6.67 80, 0 73.33, 0 60 M0 60 C0 51.19, 0 42.38, 0 20 M0 60 C0 48.08, 0 36.16, 0 20 M0 20 C0 6.67, 6.67 0, 20 0 M0 20 C0 6.67, 6.67 0, 20 0" stroke="#868e96" stroke-width="1" fill="none"></path></g><g transform="translate(1082 586.5) rotate(0 72 17.5)"><text x="72" y="12.5302734375" font-family="Helvetica, sans-serif, Segoe UI Emoji" font-size="14px" fill="#1e1e1e" text-anchor="middle" style="white-space: pre;" direction="ltr" dominant-baseline="alphabetic">PDS bsky.social</text><text x="72" y="30.0302734375" font-family="Helvetica, sans-serif, Segoe UI Emoji" font-size="14px" fill="#1e1e1e" text-anchor="middle" style="white-space: pre;" direction="ltr" dominant-baseline="alphabetic">posts · blobs · pin</text></g><g stroke-linecap="round" transform="translate(1264 564) rotate(0 60 40)"><path d="M20 0 C41.78 0, 63.57 0, 100 0 C113.33 0, 120 6.67, 120 20 C120 32.96, 120 45.92, 120 60 C120 73.33, 113.33 80, 100 80 C83.97 80, 67.94 80, 20 80 C6.67 80, 0 73.33, 0 60 C0 44.62, 0 29.24, 0 20 C0 6.67, 6.67 0, 20 0" stroke="none" stroke-width="0" fill="#e6fcf5"></path><path d="M20 0 C43.49 0, 66.99 0, 100 0 M20 0 C42.86 0, 65.72 0, 100 0 M100 0 C113.33 0, 120 6.67, 120 20 M100 0 C113.33 0, 120 6.67, 120 20 M120 20 C120 28.27, 120 36.54, 120 60 M120 20 C120 33.17, 120 46.35, 120 60 M120 60 C120 73.33, 113.33 80, 100 80 M120 60 C120 73.33, 113.33 80, 100 80 M100 80 C70.92 80, 41.83 80, 20 80 M100 80 C75.82 80, 51.64 80, 20 80 M20 80 C6.67 80, 0 73.33, 0 60 M20 80 C6.67 80, 0 73.33, 0 60 M0 60 C0 49.11, 0 38.22, 0 20 M0 60 C0 50.18, 0 40.35, 0 20 M0 20 C0 6.67, 6.67 0, 20 0 M0 20 C0 6.67, 6.67 0, 20 0" stroke="#0ca678" stroke-width="1" fill="none"></path></g><g transform="translate(1272 586.5) rotate(0 52 17.5)"><text x="52" y="12.5302734375" font-family="Helvetica, sans-serif, Segoe UI Emoji" font-size="14px" fill="#1e1e1e" text-anchor="middle" style="white-space: pre;" direction="ltr" dominant-baseline="alphabetic">AWS S3</text><text x="52" y="30.0302734375" font-family="Helvetica, sans-serif, Segoe UI Emoji" font-size="14px" fill="#1e1e1e" text-anchor="middle" style="white-space: pre;" direction="ltr" dominant-baseline="alphabetic">backups</text></g><g stroke-linecap="round"><g transform="translate(244 169) rotate(0 50 7.5)"><path d="M0 0 C28.7 4.3, 57.39 8.61, 100 15 M0 0 C28.05 4.21, 56.11 8.42, 100 15" stroke="#1e1e1e" stroke-width="1" fill="none"></path></g><g transform="translate(244 169) rotate(0 50 7.5)"><path d="M75.5 19.97 C82.53 18.54, 89.56 17.12, 100 15 M75.5 19.97 C82.37 18.58, 89.25 17.18, 100 15" stroke="#1e1e1e" stroke-width="1" fill="none"></path></g><g transform="translate(244 169) rotate(0 50 7.5)"><path d="M78.04 3.06 C84.34 6.49, 90.64 9.91, 100 15 M78.04 3.06 C84.2 6.41, 90.36 9.76, 100 15" stroke="#1e1e1e" stroke-width="1" fill="none"></path></g></g><mask></mask><g stroke-linecap="round"><g transform="translate(474 234) rotate(0 0 50)"><path d="M0 0 C0 21.32, 0 42.64, 0 100 M0 0 C0 25.79, 0 51.57, 0 100" stroke="#1e1e1e" stroke-width="1" fill="none"></path></g><g transform="translate(474 234) rotate(0 0 50)"><path d="M-8.55 76.51 C-6.73 81.52, -4.9 86.52, 0 100 M-8.55 76.51 C-6.35 82.57, -4.14 88.62, 0 100" stroke="#1e1e1e" stroke-width="1" fill="none"></path></g><g transform="translate(474 234) rotate(0 0 50)"><path d="M8.55 76.51 C6.73 81.52, 4.9 86.52, 0 100 M8.55 76.51 C6.35 82.57, 4.14 88.62, 0 100" stroke="#1e1e1e" stroke-width="1" fill="none"></path></g></g><mask></mask><g transform="translate(480 276.5) rotate(0 109.60000000000002 7.5)"><text x="109.60000000000001" y="10.740234375" font-family="Helvetica, sans-serif, Segoe UI Emoji" font-size="12px" fill="#1e1e1e" text-anchor="middle" style="white-space: pre;" direction="ltr" dominant-baseline="alphabetic">writeCh · 50k buffer · ≤2 s send</text></g><g stroke-linecap="round"><g transform="translate(764 164) rotate(0 -80 0)"><path d="M0 0 C-59.1 0, -118.19 0, -160 0 M0 0 C-53.67 0, -107.34 0, -160 0" stroke="#1e1e1e" stroke-width="1" fill="none"></path></g><g transform="translate(764 164) rotate(0 -80 0)"><path d="M-136.51 -8.55 C-145.18 -5.39, -153.86 -2.23, -160 0 M-136.51 -8.55 C-144.39 -5.68, -152.27 -2.81, -160 0" stroke="#1e1e1e" stroke-width="1" fill="none"></path></g><g transform="translate(764 164) rotate(0 -80 0)"><path d="M-136.51 8.55 C-145.18 5.39, -153.86 2.23, -160 0 M-136.51 8.55 C-144.39 5.68, -152.27 2.81, -160 0" stroke="#1e1e1e" stroke-width="1" fill="none"></path></g></g><mask></mask><g transform="translate(607.4 146) rotate(0 76.60000000000002 7.5)"><text x="76.60000000000001" y="10.740234375" font-family="Helvetica, sans-serif, Segoe UI Emoji" font-size="12px" fill="#1e1e1e" text-anchor="middle" style="white-space: pre;" direction="ltr" dominant-baseline="alphabetic">stall → ForceReconnect</text></g><g stroke-linecap="round"><g transform="translate(894 244) rotate(0 -10 40)"><path d="M0 0 C-7 27.99, -13.99 55.98, -20 80 M0 0 C-5.95 23.82, -11.91 47.63, -20 80" stroke="#1e1e1e" stroke-width="1" fill="none"></path></g><g transform="translate(894 244) rotate(0 -10 40)"><path d="M-22.6 55.14 C-21.69 63.83, -20.78 72.53, -20 80 M-22.6 55.14 C-21.82 62.54, -21.05 69.94, -20 80" stroke="#1e1e1e" stroke-width="1" fill="none"></path></g><g transform="translate(894 244) rotate(0 -10 40)"><path d="M-6.01 59.28 C-10.9 66.53, -15.8 73.78, -20 80 M-6.01 59.28 C-10.17 65.45, -14.34 71.62, -20 80" stroke="#1e1e1e" stroke-width="1" fill="none"></path></g></g><mask></mask><g transform="translate(890 276.5) rotate(0 37 7.5)"><text x="37" y="10.740234375" font-family="Helvetica, sans-serif, Segoe UI Emoji" font-size="12px" fill="#1e1e1e" text-anchor="middle" style="white-space: pre;" direction="ltr" dominant-baseline="alphabetic">analysisCh</text></g><g stroke-linecap="round"><g transform="translate(1195.6 244) rotate(0 -5.7999999999999545 40)"><path d="M0 0 C-3.96 27.32, -7.92 54.64, -11.6 80 M0 0 C-3.89 26.8, -7.77 53.6, -11.6 80" stroke="#1e1e1e" stroke-width="1" fill="none"></path></g><g transform="translate(1195.6 244) rotate(0 -5.7999999999999545 40)"><path d="M-16.69 55.52 C-14.95 63.88, -13.21 72.24, -11.6 80 M-16.69 55.52 C-14.99 63.72, -13.28 71.92, -11.6 80" stroke="#1e1e1e" stroke-width="1" fill="none"></path></g><g transform="translate(1195.6 244) rotate(0 -5.7999999999999545 40)"><path d="M0.23 57.98 C-3.81 65.5, -7.85 73.02, -11.6 80 M0.23 57.98 C-3.73 65.35, -7.69 72.73, -11.6 80" stroke="#1e1e1e" stroke-width="1" fill="none"></path></g></g><mask></mask><g transform="translate(1195.8 276.5) rotate(0 79.89999999999998 7.5)"><text x="79.9" y="10.740234375" font-family="Helvetica, sans-serif, Segoe UI Emoji" font-size="12px" fill="#1e1e1e" text-anchor="middle" style="white-space: pre;" direction="ltr" dominant-baseline="alphabetic">backupCh · yearlyPostCh</text></g><g stroke-linecap="round"><g transform="translate(1284 184) rotate(0 95 70)"><path d="M0 0 C65.97 0, 131.93 0, 190 0 M0 0 C72.29 0, 144.58 0, 190 0 M190 0 C190 33.67, 190 67.34, 190 140 M190 0 C190 36.88, 190 73.75, 190 140" stroke="#1e1e1e" stroke-width="1" fill="none"></path></g><g transform="translate(1284 184) rotate(0 95 70)"><path d="M181.45 116.51 C184.42 124.66, 187.39 132.82, 190 140 M181.45 116.51 C184.7 125.45, 187.96 134.38, 190 140" stroke="#1e1e1e" stroke-width="1" fill="none"></path></g><g transform="translate(1284 184) rotate(0 95 70)"><path d="M198.55 116.51 C195.58 124.66, 192.61 132.82, 190 140 M198.55 116.51 C195.3 125.45, 192.04 134.38, 190 140" stroke="#1e1e1e" stroke-width="1" fill="none"></path></g></g><mask></mask><g stroke-linecap="round"><g transform="translate(1664 389) rotate(0 -30 0)"><path d="M0 0 C-16.08 0, -32.17 0, -60 0 M0 0 C-22.9 0, -45.8 0, -60 0" stroke="#1e1e1e" stroke-width="1" fill="none"></path></g><g transform="translate(1664 389) rotate(0 -30 0)"><path d="M-36.51 -8.55 C-42.81 -6.26, -49.1 -3.97, -60 0 M-36.51 -8.55 C-45.47 -5.29, -54.44 -2.02, -60 0" stroke="#1e1e1e" stroke-width="1" fill="none"></path></g><g transform="translate(1664 389) rotate(0 -30 0)"><path d="M-36.51 8.55 C-42.81 6.26, -49.1 3.97, -60 0 M-36.51 8.55 C-45.47 5.29, -54.44 2.02, -60 0" stroke="#1e1e1e" stroke-width="1" fill="none"></path></g></g><mask></mask><g stroke-linecap="round"><g transform="translate(474 434) rotate(0 0 65)"><path d="M0 0 C0 50.21, 0 100.42, 0 130 M0 0 C0 50.5, 0 101.01, 0 130" stroke="#1e1e1e" stroke-width="1" fill="none"></path></g><g transform="translate(474 434) rotate(0 0 65)"><path d="M-8.55 106.51 C-5.25 115.58, -1.95 124.65, 0 130 M-8.55 106.51 C-5.23 115.63, -1.91 124.76, 0 130" stroke="#1e1e1e" stroke-width="1" fill="none"></path></g><g transform="translate(474 434) rotate(0 0 65)"><path d="M8.55 106.51 C5.25 115.58, 1.95 124.65, 0 130 M8.55 106.51 C5.23 115.63, 1.91 124.76, 0 130" stroke="#1e1e1e" stroke-width="1" fill="none"></path></g></g><mask></mask><g transform="translate(480 491.5) rotate(0 109.60000000000002 7.5)"><text x="109.60000000000001" y="10.740234375" font-family="Helvetica, sans-serif, Segoe UI Emoji" font-size="12px" fill="#1e1e1e" text-anchor="middle" style="white-space: pre;" direction="ltr" dominant-baseline="alphabetic">FlushPostBatch · FlushTokenBatch</text></g><g stroke-linecap="round"><g transform="translate(748 454) rotate(0 -112 55)"><path d="M0 0 C0 19.73, 0 39.46, 0 65 M0 0 C0 14.36, 0 28.72, 0 65 M0 65 C-84.76 65, -169.52 65, -224 65 M0 65 C-74.88 65, -149.77 65, -224 65 M-224 65 C-223.57 74.6, -223.15 84.19, -222 110 M-224 65 C-223.49 76.48, -222.98 87.95, -222 110" stroke="#1e1e1e" stroke-width="1" fill="none"></path></g><g transform="translate(748 454) rotate(0 -112 55)"><path d="M-230.64 89.2 C-228.01 95.51, -225.39 101.83, -222 110 M-230.64 89.2 C-228.73 93.79, -226.82 98.39, -222 110" stroke="#1e1e1e" stroke-width="1" fill="none"></path></g><g transform="translate(748 454) rotate(0 -112 55)"><path d="M-215.24 88.51 C-217.29 95.04, -219.35 101.56, -222 110 M-215.24 88.51 C-216.74 93.26, -218.23 98.01, -222 110" stroke="#1e1e1e" stroke-width="1" fill="none"></path></g></g><mask></mask><g transform="translate(754 479) rotate(0 50.19999999999999 7.5)"><text x="50.2" y="10.740234375" font-family="Helvetica, sans-serif, Segoe UI Emoji" font-size="12px" fill="#1e1e1e" text-anchor="middle" style="white-space: pre;" direction="ltr" dominant-baseline="alphabetic">reads + writes</text></g><g stroke-linecap="round"><g transform="translate(1074.8 454) rotate(0 -275.4 32.5)"><path d="M0 0 C0 24.32, 0 48.63, 0 65 M0 0 C0 20.43, 0 40.86, 0 65 M0 65 C-186.15 65, -372.3 65, -550.8 65 M0 65 C-147.18 65, -294.37 65, -550.8 65" stroke="#1e1e1e" stroke-width="1" fill="none"></path></g></g><mask></mask><g stroke-linecap="round"><g transform="translate(1364.8 454) rotate(0 -420.4 32.5)"><path d="M0 0 C0 19.27, 0 38.53, 0 65 M0 0 C0 19.5, 0 38.99, 0 65 M0 65 C-261.91 65, -523.82 65, -840.8 65 M0 65 C-200.81 65, -401.62 65, -840.8 65" stroke="#1e1e1e" stroke-width="1" fill="none"></path></g></g><mask></mask><g stroke-linecap="round"><g transform="translate(774 454) rotate(0 0 55)"><path d="M0 0 C0 37.82, 0 75.63, 0 110 M0 0 C0 31.14, 0 62.28, 0 110" stroke="#1e1e1e" stroke-width="1" fill="none"></path></g><g transform="translate(774 454) rotate(0 0 55)"><path d="M-8.55 86.51 C-5.61 94.58, -2.67 102.66, 0 110 M-8.55 86.51 C-6.13 93.16, -3.71 99.81, 0 110" stroke="#1e1e1e" stroke-width="1" fill="none"></path></g><g transform="translate(774 454) rotate(0 0 55)"><path d="M8.55 86.51 C5.61 94.58, 2.67 102.66, 0 110 M8.55 86.51 C6.13 93.16, 3.71 99.81, 0 110" stroke="#1e1e1e" stroke-width="1" fill="none"></path></g></g><mask></mask><g transform="translate(780 501.5) rotate(0 27.100000000000023 7.5)"><text x="27.1" y="10.740234375" font-family="Helvetica, sans-serif, Segoe UI Emoji" font-size="12px" fill="#1e1e1e" text-anchor="middle" style="white-space: pre;" direction="ltr" dominant-baseline="alphabetic">hydrate</text></g><g stroke-linecap="round"><g transform="translate(964 454) rotate(0 0 55)"><path d="M0 0 C0 22.01, 0 44.01, 0 110 M0 0 C0 23.21, 0 46.42, 0 110" stroke="#1e1e1e" stroke-width="1" fill="none"></path></g><g transform="translate(964 454) rotate(0 0 55)"><path d="M-8.55 86.51 C-6.84 91.21, -5.13 95.91, 0 110 M-8.55 86.51 C-6.75 91.46, -4.94 96.42, 0 110" stroke="#1e1e1e" stroke-width="1" fill="none"></path></g><g transform="translate(964 454) rotate(0 0 55)"><path d="M8.55 86.51 C6.84 91.21, 5.13 95.91, 0 110 M8.55 86.51 C6.75 91.46, 4.94 96.42, 0 110" stroke="#1e1e1e" stroke-width="1" fill="none"></path></g></g><mask></mask><g transform="translate(970 501.5) rotate(0 56.799999999999955 7.5)"><text x="56.800000000000004" y="10.740234375" font-family="Helvetica, sans-serif, Segoe UI Emoji" font-size="12px" fill="#1e1e1e" text-anchor="middle" style="white-space: pre;" direction="ltr" dominant-baseline="alphabetic">group · validate</text></g><g stroke-linecap="round"><g transform="translate(1012 454) rotate(0 51 55)"><path d="M0 0 C0 22.57, 0 45.15, 0 90 M0 0 C0 20.78, 0 41.56, 0 90 M0 90 C38.51 90, 77.02 90, 102 90 M0 90 C26.08 90, 52.17 90, 102 90 M102 90 C102 95.06, 102 100.11, 102 110 M102 90 C102 94.1, 102 98.21, 102 110" stroke="#1e1e1e" stroke-width="1" fill="none"></path></g><g transform="translate(1012 454) rotate(0 51 55)"><path d="M98.58 100.6 C99.44 102.96, 100.3 105.32, 102 110 M98.58 100.6 C99.37 102.77, 100.16 104.94, 102 110" stroke="#1e1e1e" stroke-width="1" fill="none"></path></g><g transform="translate(1012 454) rotate(0 51 55)"><path d="M105.42 100.6 C104.56 102.96, 103.7 105.32, 102 110 M105.42 100.6 C104.63 102.77, 103.84 104.94, 102 110" stroke="#1e1e1e" stroke-width="1" fill="none"></path></g></g><mask></mask><g transform="translate(1045.8 526) rotate(0 17.200000000000045 7.5)"><text x="17.200000000000003" y="10.740234375" font-family="Helvetica, sans-serif, Segoe UI Emoji" font-size="12px" fill="#1e1e1e" text-anchor="middle" style="white-space: pre;" direction="ltr" dominant-baseline="alphabetic">post</text></g><g stroke-linecap="round"><g transform="translate(1170 454) rotate(0 0 55)"><path d="M0 0 C0 41.22, 0 82.44, 0 110 M0 0 C0 41.36, 0 82.73, 0 110" stroke="#1e1e1e" stroke-width="1" fill="none"></path></g><g transform="translate(1170 454) rotate(0 0 55)"><path d="M-8.55 86.51 C-5.35 95.31, -2.14 104.11, 0 110 M-8.55 86.51 C-5.34 95.34, -2.12 104.18, 0 110" stroke="#1e1e1e" stroke-width="1" fill="none"></path></g><g transform="translate(1170 454) rotate(0 0 55)"><path d="M8.55 86.51 C5.35 95.31, 2.14 104.11, 0 110 M8.55 86.51 C5.34 95.34, 2.12 104.18, 0 110" stroke="#1e1e1e" stroke-width="1" fill="none"></path></g></g><mask></mask><g stroke-linecap="round"><g transform="translate(1312 454) rotate(0 0 55)"><path d="M0 0 C0 25.3, 0 50.61, 0 110 M0 0 C0 28.75, 0 57.5, 0 110" stroke="#1e1e1e" stroke-width="1" fill="none"></path></g><g transform="translate(1312 454) rotate(0 0 55)"><path d="M-8.55 86.51 C-6.58 91.91, -4.62 97.32, 0 110 M-8.55 86.51 C-6.32 92.65, -4.08 98.79, 0 110" stroke="#1e1e1e" stroke-width="1" fill="none"></path></g><g transform="translate(1312 454) rotate(0 0 55)"><path d="M8.55 86.51 C6.58 91.91, 4.62 97.32, 0 110 M8.55 86.51 C6.32 92.65, 4.08 98.79, 0 110" stroke="#1e1e1e" stroke-width="1" fill="none"></path></g></g><mask></mask><g transform="translate(1318 501.5) rotate(0 33.700000000000045 7.5)"><text x="33.7" y="10.740234375" font-family="Helvetica, sans-serif, Segoe UI Emoji" font-size="12px" fill="#1e1e1e" text-anchor="middle" style="white-space: pre;" direction="ltr" dominant-baseline="alphabetic">00:00 UTC</text></g></svg>